<?xml version="1.0" encoding="UTF-8" standalone="no"?>
<!-- Created with Inkscape (http://www.inkscape.org/) -->

<svg
   width="149.43481mm"
   height="40.701118mm"
   viewBox="0 0 149.43481 40.701118"
   version="1.1"
   id="svg1"
   inkscape:version="1.3-beta (cedbd6c6ff, 2023-05-28)"
   sodipodi:docname="simetrica identidad visual.svg"
   xmlns:inkscape="http://www.inkscape.org/namespaces/inkscape"
   xmlns:sodipodi="http://sodipodi.sourceforge.net/DTD/sodipodi-0.dtd"
   xmlns="http://www.w3.org/2000/svg"
   xmlns:svg="http://www.w3.org/2000/svg">
  <sodipodi:namedview
     id="namedview1"
     pagecolor="#ffffff"
     bordercolor="#666666"
     borderopacity="1.0"
     inkscape:showpageshadow="2"
     inkscape:pageopacity="0.0"
     inkscape:pagecheckerboard="0"
     inkscape:deskcolor="#d1d1d1"
     inkscape:document-units="mm"
     inkscape:zoom="0.08"
     inkscape:cx="10275"
     inkscape:cy="-268.75"
     inkscape:window-width="1680"
     inkscape:window-height="987"
     inkscape:window-x="-8"
     inkscape:window-y="-8"
     inkscape:window-maximized="1"
     inkscape:current-layer="layer1">
    <inkscape:page
       x="-0.00010362237"
       y="-9.0918127e-07"
       width="149.43481"
       height="40.701118"
       id="page5"
       margin="0"
       bleed="0" />
  </sodipodi:namedview>
  <defs
     id="defs1" />
  <g
     inkscape:label="Capa 1"
     inkscape:groupmode="layer"
     id="layer1"
     transform="translate(-4455.6377,-39.81208)">
    <g
       id="g55"
       transform="matrix(0.75469872,0,0,0.75469872,1211.534,-47.642247)">
      <path
         id="path26"
         style="font-size:84.6023px;line-height:0.9;font-family:'Core Sans A 75 ExtraBold';-inkscape-font-specification:'Core Sans A 75 ExtraBold, ';text-align:center;letter-spacing:-5.60561px;text-anchor:middle;fill:#081a07;fill-opacity:1;stroke-width:25.1822;stroke-linecap:round;stroke-linejoin:round;paint-order:stroke markers fill"
         d="m 4488.6784,136.3248 c -1.4864,-1.28559 -3.5411,-2.07353 -6.2952,-2.07353 -4.2406,0 -8.0002,2.57118 -8.0002,7.00848 0,4.39589 3.7596,6.96706 8.0002,6.96706 2.7541,0 4.8088,-0.74647 6.2952,-2.07353 v 1.57589 h 7.8691 V 134.9148 c 0,-5.64 -3.2351,-9.16501 -10.7107,-9.16501 -3.9783,0 -7.6505,1.32706 -10.1861,3.44206 l 4.0657,3.64942 c 1.224,-0.9953 2.9728,-1.7003 4.8963,-1.7003 2.7542,0 4.0657,1.45147 4.0657,3.44206 z m 0,5.80583 c -0.8743,0.91236 -2.2733,1.32706 -3.7596,1.32706 -1.7487,0 -2.9728,-0.78794 -2.9728,-2.19794 0,-1.41 1.2241,-2.23936 2.9728,-2.23936 1.4863,0 2.8853,0.45618 3.7596,1.36848 z" />
      <path
         style="font-size:84.6023px;line-height:0.9;font-family:'Core Sans A 75 ExtraBold';-inkscape-font-specification:'Core Sans A 75 ExtraBold, ';text-align:center;letter-spacing:-5.60561px;text-anchor:middle;fill:#081a07;fill-opacity:1;stroke-width:25.1822;stroke-linecap:round;stroke-linejoin:round;paint-order:stroke markers fill"
         d="m 4452.492,136.98833 c 0,6.59378 4.5903,11.23848 11.891,11.23848 4.8089,0 8.6123,-2.15647 10.7107,-5.55706 l -6.2515,-2.73701 c -0.9181,1.49289 -2.1421,2.40525 -3.9346,2.40525 -2.7979,0 -4.1968,-2.03206 -4.1968,-5.34966 0,-3.31765 1.3989,-5.34971 4.1968,-5.34971 1.7925,0 3.0165,0.91235 3.9346,2.4053 l 6.2515,-2.73706 c -2.0984,-3.40059 -5.9018,-5.55707 -10.7107,-5.55707 -7.3007,0 -11.891,4.64471 -11.891,11.23854 z"
         id="path27" />
      <path
         style="font-size:84.6023px;line-height:0.9;font-family:'Core Sans A 75 ExtraBold';-inkscape-font-specification:'Core Sans A 75 ExtraBold, ';text-align:center;letter-spacing:-5.60561px;text-anchor:middle;fill:#081a07;fill-opacity:1;stroke-width:25.1822;stroke-linecap:round;stroke-linejoin:round;paint-order:stroke markers fill"
         d="m 4429.3298,125.83274 c -0.3061,-0.0413 -0.9618,-0.0829 -1.3553,-0.0829 -3.1476,0 -5.2023,1.24412 -6.4701,3.19324 v -2.69559 h -8.1314 v 21.48173 h 8.1314 v -13.14614 c 1.3115,-1.8247 3.5848,-2.94441 6.2078,-2.94441 0.6121,0 1.1804,0.0413 1.6176,0.0829 z"
         id="path28" />
      <path
         style="font-size:84.6023px;line-height:0.9;font-family:'Core Sans A 75 ExtraBold';-inkscape-font-specification:'Core Sans A 75 ExtraBold, ';text-align:center;letter-spacing:-5.60561px;text-anchor:middle;fill:#081a07;fill-opacity:1;stroke-width:25.1822;stroke-linecap:round;stroke-linejoin:round;paint-order:stroke markers fill"
         d="m 4407.876,148.22681 c 1.4426,0 3.0164,-0.0829 4.2842,-0.24882 v -5.64 c -0.4809,0.0413 -1.2241,0.0413 -1.8361,0.0413 -2.623,0 -3.3662,-0.705 -3.3662,-3.06878 v -7.25735 h 5.2023 v -5.80589 h -5.2023 v -6.42794 h -8.1314 v 6.42794 h -3.7596 v 5.80589 h 3.7596 v 7.755 c 0,5.88878 2.4919,8.41848 9.0495,8.41848 z"
         id="path29" />
      <path
         id="path30"
         style="font-size:84.6023px;line-height:0.9;font-family:'Core Sans A 75 ExtraBold';-inkscape-font-specification:'Core Sans A 75 ExtraBold, ';text-align:center;letter-spacing:-5.60561px;text-anchor:middle;fill:#081a07;fill-opacity:1;stroke-width:25.1822;stroke-linecap:round;stroke-linejoin:round;paint-order:stroke markers fill"
         d="m 4395.865,137.0298 c 0,-6.6353 -4.6777,-11.28001 -11.6287,-11.28001 -6.9947,0 -11.6725,4.64471 -11.6725,11.23854 0,6.59378 4.5904,11.23848 12.2409,11.23848 4.2842,0 7.869,-1.49294 10.2297,-4.27147 l -5.5521,-3.40059 c -0.918,1.24412 -2.4918,2.03206 -4.2842,2.03206 -2.5356,0 -4.2843,-1.36853 -4.634,-3.56647 h 15.2135 c 0.087,-0.58054 0.087,-1.36853 0.087,-1.99054 z m -11.6287,-5.84736 c 2.0984,0 3.5411,1.36853 3.716,3.56648 h -7.4319 c 0.2186,-2.28089 1.6175,-3.56648 3.7159,-3.56648 z" />
      <path
         style="font-size:84.6023px;line-height:0.9;font-family:'Core Sans A 75 ExtraBold';-inkscape-font-specification:'Core Sans A 75 ExtraBold, ';text-align:center;letter-spacing:-5.60561px;text-anchor:middle;fill:#081a07;fill-opacity:1;stroke-width:25.1822;stroke-linecap:round;stroke-linejoin:round;paint-order:stroke markers fill"
         d="m 4343.8968,133.13156 c 0.7869,-0.82941 2.0547,-1.49294 3.235,-1.49294 1.705,0 2.4045,0.9953 2.4045,2.90294 v 13.18761 h 8.1313 v -11.98496 c 0,-0.87088 0,-1.70029 -0.044,-2.52971 0.7868,-0.91235 2.0547,-1.57588 3.2351,-1.57588 1.6174,0 2.4044,0.95382 2.4044,2.90294 v 13.18761 h 8.1313 v -13.89261 c 0,-5.18382 -2.5355,-8.08677 -7.0821,-8.08677 -3.2788,0 -5.7707,1.24412 -7.7817,3.1103 -1.1366,-2.03206 -3.1476,-3.1103 -5.9018,-3.1103 -2.4918,0 -4.94,1.11971 -6.7324,2.77854 v -2.28089 h -8.1314 v 21.48173 h 8.1314 z"
         id="path31" />
      <path
         style="font-size:84.6023px;line-height:0.9;font-family:'Core Sans A 75 ExtraBold';-inkscape-font-specification:'Core Sans A 75 ExtraBold, ';text-align:center;letter-spacing:-5.60561px;text-anchor:middle;fill:#081a07;fill-opacity:1;stroke-width:25.1822;stroke-linecap:round;stroke-linejoin:round;paint-order:stroke markers fill"
         d="m 4333.6782,120.19273 c 0,-2.44676 -2.0547,-4.31294 -4.6339,-4.31294 -2.5794,0 -4.6341,1.86618 -4.6341,4.31294 0,2.44677 2.0547,4.31295 4.6341,4.31295 2.5792,0 4.6339,-1.86618 4.6339,-4.31295 z"
         id="path32" />
      <path
         style="font-size:84.6023px;line-height:0.9;font-family:'Core Sans A 75 ExtraBold';-inkscape-font-specification:'Core Sans A 75 ExtraBold, ';text-align:center;letter-spacing:-5.60561px;text-anchor:middle;fill:#081a07;fill-opacity:1;stroke-width:25.1822;stroke-linecap:round;stroke-linejoin:round;paint-order:stroke markers fill"
         d="m 4324.9786,147.72917 h 8.1313 v -21.48173 h -8.1313 z"
         id="path33" />
      <path
         style="font-size:84.6023px;line-height:0.9;font-family:'Core Sans A 75 ExtraBold';-inkscape-font-specification:'Core Sans A 75 ExtraBold, ';text-align:center;letter-spacing:-5.60561px;text-anchor:middle;fill:#081a07;fill-opacity:1;stroke-width:25.1822;stroke-linecap:round;stroke-linejoin:round;paint-order:stroke markers fill"
         d="m 4311.0003,142.04774 c -2.5793,0 -4.8963,-1.20264 -6.6449,-3.02735 l -5.8144,3.93966 c 3.1039,3.40059 7.4319,5.26676 12.8528,5.26676 7.3007,0 12.0222,-3.525 12.0222,-8.95765 0,-4.76907 -2.8853,-7.17436 -9.2243,-9.04054 -4.6777,-1.36853 -5.8581,-2.23941 -5.8581,-3.73235 0,-1.32706 1.1366,-2.11501 3.3662,-2.11501 1.9235,0 3.8034,0.87089 5.0712,2.32236 l 5.4646,-3.73236 c -2.7104,-3.15176 -6.9073,-4.76912 -11.5413,-4.76912 -6.8636,0 -10.973,3.44206 -10.973,8.58442 0,4.43735 2.798,7.42324 8.8309,9.12353 5.4209,1.53442 6.2515,2.32231 6.2515,3.85672 0,1.45147 -1.3989,2.28093 -3.8034,2.28093 z"
         id="path34" />
      <text
         xml:space="preserve"
         style="font-size:19.6864px;line-height:0.9;font-family:'Core Sans A 75 ExtraBold';-inkscape-font-specification:'Core Sans A 75 ExtraBold, ';text-align:center;letter-spacing:-1.3044px;text-anchor:middle;fill:#081a07;fill-opacity:1;stroke-width:11.643;stroke-linecap:round;stroke-linejoin:round;paint-order:stroke markers fill"
         x="4332.8906"
         y="174.11253"
         id="text34"
         transform="scale(1.0267281,0.97396769)"><tspan
           sodipodi:role="line"
           id="tspan34"
           style="font-style:normal;font-variant:normal;font-weight:normal;font-stretch:normal;font-family:'Core Sans A 45 Regular';-inkscape-font-specification:'Core Sans A 45 Regular, ';letter-spacing:-1.3044px;fill:#081a07;fill-opacity:1;stroke-width:11.643"
           x="4332.2383"
           y="174.11253">Dev Studio</tspan></text>
      <path
         style="fill:#30b4ff;fill-opacity:1;stroke:none;stroke-width:1.08717;stroke-linecap:round;stroke-linejoin:round;stroke-dasharray:none;paint-order:stroke markers fill"
         d="m 4441.3231,121.55608 c -3.149,0.0554 -6.4445,2.04439 -7.2368,5.22474 -0.3295,1.44433 -0.2699,3.07451 0.6247,4.31732 1.9488,3.15615 4.2744,6.06639 6.1961,9.23829 0.7904,1.17768 0.1381,2.76051 -0.9599,3.4863 -0.9327,0.74023 -2.2006,0.63217 -3.3062,0.48969 -1.2115,-0.37932 -2.3924,-1.45867 -2.2592,-2.82106 -0.093,-1.07229 0.6908,-1.95385 1.5655,-2.46815 0.3886,-0.31768 1.0087,-0.42779 1.2811,-0.8503 -0.6713,-1.03586 -1.4056,-2.03256 -2.1054,-3.05025 -2.0387,0.81763 -4.1023,2.29688 -4.8174,4.50424 -0.6083,1.73331 -0.3182,3.7241 0.7401,5.22394 1.6636,2.52537 4.9328,3.63753 7.8536,3.25488 3.1558,-0.27615 6.2871,-2.67168 6.6997,-5.93024 0.2072,-1.57327 -0.4248,-3.10194 -1.325,-4.36076 -1.8624,-2.90792 -3.9655,-5.66532 -5.7915,-8.59076 -0.6545,-1.29625 0.149,-2.99937 1.4512,-3.55031 1.787,-0.94044 4.3929,-0.24143 5.1192,1.74292 0.4068,1.24135 -0.2749,2.69484 -1.4597,3.24437 -0.3947,0.30937 -0.9673,0.48653 -1.3099,0.80435 0.579,1.035 1.2464,2.05511 2.0393,2.93873 0.575,0.22436 1.1112,-0.37138 1.616,-0.56429 1.6626,-0.99574 3.1787,-2.59473 3.489,-4.56941 0.088,-1.2646 0.1316,-2.61456 -0.5816,-3.72773 -1.0982,-2.07182 -3.2113,-3.54976 -5.5455,-3.82516 -0.6532,-0.1071 -1.3151,-0.17021 -1.9774,-0.16135 z"
         id="path35" />
      <path
         id="path36"
         style="font-size:84.6023px;line-height:0.9;font-family:'Core Sans A 75 ExtraBold';-inkscape-font-specification:'Core Sans A 75 ExtraBold, ';text-align:center;letter-spacing:-5.60561px;text-anchor:middle;fill:#081a07;fill-opacity:1;stroke-width:25.1822;stroke-linecap:round;stroke-linejoin:round;paint-order:stroke markers fill"
         d="m 4488.6784,136.3248 c -1.4864,-1.28559 -3.5411,-2.07353 -6.2952,-2.07353 -4.2406,0 -8.0002,2.57118 -8.0002,7.00848 0,4.39589 3.7596,6.96706 8.0002,6.96706 2.7541,0 4.8088,-0.74647 6.2952,-2.07353 v 1.57589 h 7.8691 V 134.9148 c 0,-5.64 -3.2351,-9.16501 -10.7107,-9.16501 -3.9783,0 -7.6505,1.32706 -10.1861,3.44206 l 4.0657,3.64942 c 1.224,-0.9953 2.9728,-1.7003 4.8963,-1.7003 2.7542,0 4.0657,1.45147 4.0657,3.44206 z m 0,5.80583 c -0.8743,0.91236 -2.2733,1.32706 -3.7596,1.32706 -1.7487,0 -2.9728,-0.78794 -2.9728,-2.19794 0,-1.41 1.2241,-2.23936 2.9728,-2.23936 1.4863,0 2.8853,0.45618 3.7596,1.36848 z" />
      <path
         style="font-size:84.6023px;line-height:0.9;font-family:'Core Sans A 75 ExtraBold';-inkscape-font-specification:'Core Sans A 75 ExtraBold, ';text-align:center;letter-spacing:-5.60561px;text-anchor:middle;fill:#081a07;fill-opacity:1;stroke-width:25.1822;stroke-linecap:round;stroke-linejoin:round;paint-order:stroke markers fill"
         d="m 4452.492,136.98833 c 0,6.59378 4.5903,11.23848 11.891,11.23848 4.8089,0 8.6123,-2.15647 10.7107,-5.55706 l -6.2515,-2.73701 c -0.9181,1.49289 -2.1421,2.40525 -3.9346,2.40525 -2.7979,0 -4.1968,-2.03206 -4.1968,-5.34966 0,-3.31765 1.3989,-5.34971 4.1968,-5.34971 1.7925,0 3.0165,0.91235 3.9346,2.4053 l 6.2515,-2.73706 c -2.0984,-3.40059 -5.9018,-5.55707 -10.7107,-5.55707 -7.3007,0 -11.891,4.64471 -11.891,11.23854 z"
         id="path37" />
      <path
         style="font-size:84.6023px;line-height:0.9;font-family:'Core Sans A 75 ExtraBold';-inkscape-font-specification:'Core Sans A 75 ExtraBold, ';text-align:center;letter-spacing:-5.60561px;text-anchor:middle;fill:#081a07;fill-opacity:1;stroke-width:25.1822;stroke-linecap:round;stroke-linejoin:round;paint-order:stroke markers fill"
         d="m 4429.3298,125.83274 c -0.3061,-0.0413 -0.9618,-0.0829 -1.3553,-0.0829 -3.1476,0 -5.2023,1.24412 -6.4701,3.19324 v -2.69559 h -8.1314 v 21.48173 h 8.1314 v -13.14614 c 1.3115,-1.8247 3.5848,-2.94441 6.2078,-2.94441 0.6121,0 1.1804,0.0413 1.6176,0.0829 z"
         id="path47" />
      <path
         style="font-size:84.6023px;line-height:0.9;font-family:'Core Sans A 75 ExtraBold';-inkscape-font-specification:'Core Sans A 75 ExtraBold, ';text-align:center;letter-spacing:-5.60561px;text-anchor:middle;fill:#081a07;fill-opacity:1;stroke-width:25.1822;stroke-linecap:round;stroke-linejoin:round;paint-order:stroke markers fill"
         d="m 4407.876,148.22681 c 1.4426,0 3.0164,-0.0829 4.2842,-0.24882 v -5.64 c -0.4809,0.0413 -1.2241,0.0413 -1.8361,0.0413 -2.623,0 -3.3662,-0.705 -3.3662,-3.06878 v -7.25735 h 5.2023 v -5.80589 h -5.2023 v -6.42794 h -8.1314 v 6.42794 h -3.7596 v 5.80589 h 3.7596 v 7.755 c 0,5.88878 2.4919,8.41848 9.0495,8.41848 z"
         id="path48" />
      <path
         id="path49"
         style="font-size:84.6023px;line-height:0.9;font-family:'Core Sans A 75 ExtraBold';-inkscape-font-specification:'Core Sans A 75 ExtraBold, ';text-align:center;letter-spacing:-5.60561px;text-anchor:middle;fill:#081a07;fill-opacity:1;stroke-width:25.1822;stroke-linecap:round;stroke-linejoin:round;paint-order:stroke markers fill"
         d="m 4395.865,137.0298 c 0,-6.6353 -4.6777,-11.28001 -11.6287,-11.28001 -6.9947,0 -11.6725,4.64471 -11.6725,11.23854 0,6.59378 4.5904,11.23848 12.2409,11.23848 4.2842,0 7.869,-1.49294 10.2297,-4.27147 l -5.5521,-3.40059 c -0.918,1.24412 -2.4918,2.03206 -4.2842,2.03206 -2.5356,0 -4.2843,-1.36853 -4.634,-3.56647 h 15.2135 c 0.087,-0.58054 0.087,-1.36853 0.087,-1.99054 z m -11.6287,-5.84736 c 2.0984,0 3.5411,1.36853 3.716,3.56648 h -7.4319 c 0.2186,-2.28089 1.6175,-3.56648 3.7159,-3.56648 z" />
      <path
         style="font-size:84.6023px;line-height:0.9;font-family:'Core Sans A 75 ExtraBold';-inkscape-font-specification:'Core Sans A 75 ExtraBold, ';text-align:center;letter-spacing:-5.60561px;text-anchor:middle;fill:#081a07;fill-opacity:1;stroke-width:25.1822;stroke-linecap:round;stroke-linejoin:round;paint-order:stroke markers fill"
         d="m 4343.8968,133.13156 c 0.7869,-0.82941 2.0547,-1.49294 3.235,-1.49294 1.705,0 2.4045,0.9953 2.4045,2.90294 v 13.18761 h 8.1313 v -11.98496 c 0,-0.87088 0,-1.70029 -0.044,-2.52971 0.7868,-0.91235 2.0547,-1.57588 3.2351,-1.57588 1.6174,0 2.4044,0.95382 2.4044,2.90294 v 13.18761 h 8.1313 v -13.89261 c 0,-5.18382 -2.5355,-8.08677 -7.0821,-8.08677 -3.2788,0 -5.7707,1.24412 -7.7817,3.1103 -1.1366,-2.03206 -3.1476,-3.1103 -5.9018,-3.1103 -2.4918,0 -4.94,1.11971 -6.7324,2.77854 v -2.28089 h -8.1314 v 21.48173 h 8.1314 z"
         id="path50" />
      <path
         style="font-size:84.6023px;line-height:0.9;font-family:'Core Sans A 75 ExtraBold';-inkscape-font-specification:'Core Sans A 75 ExtraBold, ';text-align:center;letter-spacing:-5.60561px;text-anchor:middle;fill:#081a07;fill-opacity:1;stroke-width:25.1822;stroke-linecap:round;stroke-linejoin:round;paint-order:stroke markers fill"
         d="m 4333.6782,120.19273 c 0,-2.44676 -2.0547,-4.31294 -4.6339,-4.31294 -2.5794,0 -4.6341,1.86618 -4.6341,4.31294 0,2.44677 2.0547,4.31295 4.6341,4.31295 2.5792,0 4.6339,-1.86618 4.6339,-4.31295 z"
         id="path51" />
      <path
         style="font-size:84.6023px;line-height:0.9;font-family:'Core Sans A 75 ExtraBold';-inkscape-font-specification:'Core Sans A 75 ExtraBold, ';text-align:center;letter-spacing:-5.60561px;text-anchor:middle;fill:#081a07;fill-opacity:1;stroke-width:25.1822;stroke-linecap:round;stroke-linejoin:round;paint-order:stroke markers fill"
         d="m 4324.9786,147.72917 h 8.1313 v -21.48173 h -8.1313 z"
         id="path52" />
      <path
         style="font-size:84.6023px;line-height:0.9;font-family:'Core Sans A 75 ExtraBold';-inkscape-font-specification:'Core Sans A 75 ExtraBold, ';text-align:center;letter-spacing:-5.60561px;text-anchor:middle;fill:#081a07;fill-opacity:1;stroke-width:25.1822;stroke-linecap:round;stroke-linejoin:round;paint-order:stroke markers fill"
         d="m 4311.0003,142.04774 c -2.5793,0 -4.8963,-1.20264 -6.6449,-3.02735 l -5.8144,3.93966 c 3.1039,3.40059 7.4319,5.26676 12.8528,5.26676 7.3007,0 12.0222,-3.525 12.0222,-8.95765 0,-4.76907 -2.8853,-7.17436 -9.2243,-9.04054 -4.6777,-1.36853 -5.8581,-2.23941 -5.8581,-3.73235 0,-1.32706 1.1366,-2.11501 3.3662,-2.11501 1.9235,0 3.8034,0.87089 5.0712,2.32236 l 5.4646,-3.73236 c -2.7104,-3.15176 -6.9073,-4.76912 -11.5413,-4.76912 -6.8636,0 -10.973,3.44206 -10.973,8.58442 0,4.43735 2.798,7.42324 8.8309,9.12353 5.4209,1.53442 6.2515,2.32231 6.2515,3.85672 0,1.45147 -1.3989,2.28093 -3.8034,2.28093 z"
         id="path53" />
      <text
         xml:space="preserve"
         style="font-size:19.6864px;line-height:0.9;font-family:'Core Sans A 75 ExtraBold';-inkscape-font-specification:'Core Sans A 75 ExtraBold, ';text-align:center;letter-spacing:-1.3044px;text-anchor:middle;fill:#081a07;fill-opacity:1;stroke-width:11.643;stroke-linecap:round;stroke-linejoin:round;paint-order:stroke markers fill"
         x="4332.8906"
         y="174.11253"
         id="text53"
         transform="scale(1.0267281,0.97396769)"><tspan
           sodipodi:role="line"
           id="tspan53"
           style="font-style:normal;font-variant:normal;font-weight:normal;font-stretch:normal;font-family:'Core Sans A 45 Regular';-inkscape-font-specification:'Core Sans A 45 Regular, ';letter-spacing:-1.3044px;fill:#081a07;fill-opacity:1;stroke-width:11.643"
           x="4332.2383"
           y="174.11253">Dev Studio</tspan></text>
    </g>
  </g>
</svg>
